<?xml version="1.0" encoding="UTF-8"?>
<svg id="_レイヤー_1" data-name="レイヤー_1" xmlns="http://www.w3.org/2000/svg" version="1.1" viewBox="0 0 700 400">
  <!-- Generator: Adobe Illustrator 29.0.1, SVG Export Plug-In . SVG Version: 2.1.0 Build 192)  -->
  <defs>
    <style>
      .st0 {
        fill: #555;
      }
    </style>
  </defs>
  <g>
    <path class="st0" d="M210.1,44.5c0,.1-.1.2-.4.2s-.4,0-.4-.2c-.3-2.5-1.1-4.5-2.6-5.8-1.4-1.4-3.3-2-5.7-2h-3.9c-2.1,0-3.5.3-4.3.9-.7.6-1.1,1.7-1.1,3.3v15.3h6.7c2.5,0,4.3-.4,5.5-1.2,1.1-.8,1.7-2.1,1.7-3.8s.1-.1.4-.1.4,0,.4.1v5.8c0,1.4,0,2.4,0,3.1v3.5c0,0,0,.1-.4.1s-.4,0-.4-.1c0-2.1-.6-3.5-1.8-4.4-1.2-.9-3.1-1.4-5.7-1.4h-6.5v15.2c0,1.5.2,2.6.6,3.3.4.7,1.2,1.2,2.3,1.4,1.1.3,3,.4,5.4.4s.1.1.1.4,0,.4-.1.4c-1.9,0-3.4,0-4.5,0h-6.5c0,0-4.8,0-4.8,0-.9,0-2.1,0-3.6,0s-.2-.1-.2-.4,0-.4.2-.4c1.7,0,3-.1,3.8-.4.8-.2,1.4-.7,1.7-1.4.3-.7.5-1.7.5-3.1v-32.4c0-1.4-.1-2.4-.4-3.1-.3-.7-.8-1.1-1.6-1.4-.8-.3-2.1-.4-3.8-.4s-.1-.1-.1-.4,0-.4.1-.4h28.4c.4,0,.6.2.6.6v8.8Z"/>
    <path class="st0" d="M248,74.8c.2,0,.3.1.4.3,0,.2,0,.4-.1.5l-8.5,4h-.3c-.5,0-.9-.5-1.3-1.6s-.6-2.6-.6-4.3c-3.5,3.9-7.1,5.9-10.9,5.9s-4.2-.7-5.6-2.2c-1.4-1.5-2-3.6-2-6.4v-10.7c0-1.8-.2-3.1-.5-3.8-.3-.8-.8-1.2-1.6-1.2s-1.3.2-2.3.6h-.1c-.1,0-.2-.1-.3-.3,0-.2,0-.4.1-.4l8.1-3.7h.3c.1,0,.3,0,.5.1.2.1.3.3.3.4v16.5c0,5.4,2,8,5.9,8s2.8-.3,4.3-1,2.8-1.7,4-2.9v-12.2c0-1.8-.2-3.1-.5-3.8-.3-.8-.9-1.2-1.6-1.2s-1.3.2-2.3.6h-.1c-.1,0-.2-.1-.3-.3,0-.2,0-.4.1-.4l8-3.7h.3c.1,0,.3,0,.5.1.2.1.2.3.2.4v19.4c0,1.6.2,2.7.6,3.4.4.7,1,1,1.8,1s1.9-.3,3.6-.9h.1Z"/>
    <path class="st0" d="M283.5,78.5c0,.3,0,.4-.2.4-1.2,0-2.1,0-2.7,0h-3.8c0,0-3.8,0-3.8,0-.7,0-1.5,0-2.7,0s-.2-.1-.2-.4,0-.4.2-.4c1.2,0,2.1-.1,2.7-.4.6-.3,1-.7,1.2-1.4.2-.7.3-1.7.3-3v-11.1c0-2.7-.5-4.7-1.5-6-1-1.3-2.6-1.9-4.8-1.9s-2.7.3-4.2,1-2.7,1.7-3.9,2.9v15.1c0,1.4.1,2.4.3,3,.2.7.6,1.1,1.2,1.4.6.3,1.5.4,2.7.4s.2.1.2.4,0,.4-.2.4c-1.2,0-2.1,0-2.7,0h-3.8c0,0-3.8,0-3.8,0-.7,0-1.5,0-2.7,0s-.2-.1-.2-.4,0-.4.2-.4c1.2,0,2.1-.1,2.7-.4.6-.3,1-.7,1.2-1.4.2-.7.3-1.7.3-3v-13.7c0-1.5-.2-2.7-.6-3.4-.4-.7-1-1-1.8-1s-1.9.3-3.7,1h0c-.2,0-.3-.1-.4-.3,0-.2,0-.4.1-.5l8.4-4.1h.4c.5,0,.9.5,1.4,1.5.4,1,.7,2.4.7,4.2,3.4-4,7-6,10.7-6s4.6.7,6,2.2c1.4,1.5,2.1,3.6,2.1,6.4v13.7c0,1.4.1,2.4.3,3,.2.7.6,1.1,1.2,1.4.6.3,1.5.4,2.7.4s.2.1.2.4Z"/>
    <path class="st0" d="M310.2,74.9c.1,0,.3,0,.4.2.1.2.1.3,0,.5-3.1,2.8-6.6,4.2-10.4,4.2s-5.1-.6-7.1-1.9c-2-1.2-3.5-2.9-4.5-5-1-2.1-1.5-4.3-1.5-6.7s.7-5.3,2-7.6c1.3-2.3,3.1-4.1,5.4-5.4,2.3-1.3,4.8-2,7.6-2s4.8.7,6.2,2.1c1.4,1.4,2.1,3.3,2.1,5.9s-.3,1.9-.8,1.9h-17.3c0,1.1-.1,1.9-.1,2.5,0,4.1,1,7.3,2.9,9.8,1.9,2.5,4.6,3.7,8.1,3.7s2.6-.2,3.5-.5c1-.3,2.1-.9,3.4-1.7h0ZM295,54.7c-1.3,1.3-2.1,3.2-2.5,5.6l12.7-.3c0-2.4-.5-4.2-1.4-5.4-1-1.2-2.3-1.9-4-1.9s-3.6.7-4.8,2Z"/>
    <path class="st0" d="M335.9,52.2c1,.6,1.4,1.3,1.4,2.2s-.2,1.2-.7,1.6c-.4.4-1,.7-1.8.7s-.9,0-1.2-.3c-.3-.2-.7-.5-1.1-.8-.5-.4-.9-.7-1.2-.8-.3-.2-.8-.3-1.3-.3s-1.2.2-1.9.7-1.6,1.5-3,3.1v15.1c0,1.4.2,2.4.5,3,.3.7,1,1.1,1.9,1.4.9.3,2.4.4,4.3.4s.2.1.2.4,0,.4-.2.4c-1.5,0-2.8,0-3.7,0h-5.2c0,0-3.8,0-3.8,0-.7,0-1.5,0-2.7,0s-.2-.1-.2-.4,0-.4.2-.4c1.2,0,2.1-.1,2.7-.4.6-.3,1-.7,1.2-1.4.2-.7.3-1.7.3-3v-13.7c0-1.5-.2-2.7-.6-3.4-.4-.7-1-1-1.8-1s-1.9.3-3.7,1h0c-.2,0-.3-.1-.4-.3,0-.2,0-.4.1-.5l8.4-4.1h.4c.5,0,.9.5,1.4,1.5.4,1,.7,2.4.7,4.1,1.9-2.2,3.4-3.7,4.5-4.5,1.1-.8,2.2-1.2,3.2-1.2s2,.3,3,.9Z"/>
    <path class="st0" d="M368.2,75.1c.2,0,.3.1.3.3,0,.2,0,.4-.2.5l-7.2,3.4c-.2,0-.4.1-.6.1-.6,0-1.2-.4-1.6-1.2-.5-.8-.8-1.9-1-3.3l-3.5,2.3c-1.1.8-2.1,1.4-3,1.7s-1.9.5-2.9.5c-1.8,0-3.1-.5-4.1-1.4-1-.9-1.5-2.1-1.5-3.5s.6-2.7,1.8-3.7c1.2-1,3.1-2,5.7-3l7.5-2.7v-4.6c0-2.8-.4-4.8-1.1-6.1-.7-1.3-1.8-1.9-3.2-1.9s-2.7.5-3.5,1.6c-.8,1.1-1.3,2.3-1.5,3.6-.3,2.1-1.2,3.1-2.9,3.1s-1.5-.2-1.9-.6-.6-.9-.6-1.5c0-1.2.7-2.3,2.2-3.5,1.5-1.2,3.2-2.1,5.3-2.9,2.1-.7,3.9-1.1,5.5-1.1s3.4.6,4.4,1.9c1,1.2,1.6,3,1.6,5.4v12.9c0,1.6.2,2.8.7,3.5.4.7,1.1,1.1,2.1,1.1s1.9-.3,3.2-.8h.1ZM357.8,73.9v-7.8l-5.9,2.4c-1.3.5-2.2,1-2.9,1.7-.7.7-1,1.5-1,2.6s.4,2,1.1,2.8c.7.7,1.6,1.1,2.8,1.1s2-.3,3.2-1l2.7-1.7Z"/>
    <path class="st0" d="M371,78.5c0-.3,0-.4.2-.4,1.7,0,2.9-.3,3.4-.9.6-.6.8-1.9.8-3.9v-36.1c0-1.7-.2-2.9-.5-3.6-.3-.7-.9-1.1-1.6-1.1s-1.8.3-3.2,1h0c-.2,0-.3-.1-.5-.4s0-.4.1-.5l9.2-4.3h.3c.1,0,.3,0,.5.1.2.1.3.3.3.4v44.5c0,2,.3,3.3.8,3.9.5.6,1.7.9,3.5.9s.2.1.2.4,0,.4-.2.4c-1.1,0-2,0-2.7,0h-3.9c0,0-3.9,0-3.9,0-.7,0-1.5,0-2.7,0s-.2-.1-.2-.4Z"/>
    <path class="st0" d="M453.9,78.5c0,.3,0,.4-.2.4-1.5,0-2.7,0-3.5,0h-5c0,0-5.4,0-5.4,0-.8,0-1.9,0-3.3,0s-.2-.1-.2-.4,0-.4.2-.4c1.8,0,3.1-.1,4-.4.8-.2,1.4-.7,1.7-1.4.3-.7.5-1.7.5-3.1v-16.3h-26.1v16.3c0,1.4.2,2.4.5,3.1.3.7.9,1.1,1.7,1.4.8.2,2.1.4,4,.4s.1.1.1.4,0,.4-.1.4c-1.5,0-2.7,0-3.5,0h-5.2c0,0-4.9,0-4.9,0-.8,0-2,0-3.6,0s-.1-.1-.1-.4,0-.4.1-.4c1.8,0,3.1-.1,3.9-.4.8-.2,1.4-.7,1.7-1.4.3-.7.5-1.7.5-3.1v-32.4c0-1.4-.2-2.4-.5-3.1-.3-.7-.9-1.1-1.7-1.4-.8-.3-2.1-.4-3.8-.4s-.1-.1-.1-.4,0-.4.1-.4h3.6c2,.2,3.6.2,4.8.2s3.2,0,5.3-.1h3.4c0,0,.1,0,.1.4s0,.4-.1.4c-1.8,0-3.1.1-3.9.4s-1.4.8-1.7,1.4c-.3.7-.5,1.7-.5,3.1v14.4h26.1v-14.4c0-1.4-.2-2.4-.5-3.1-.3-.7-.9-1.2-1.7-1.4s-2.1-.4-3.9-.4-.2-.1-.2-.4,0-.4.2-.4h3.3c2.1.2,3.8.2,5.4.2s2.9,0,5-.1h3.5c.1,0,.2,0,.2.4s0,.4-.2.4c-1.8,0-3.1.1-3.9.4-.8.3-1.4.7-1.7,1.4-.3.7-.5,1.7-.5,3.1v32.4c0,1.4.2,2.4.5,3.1.3.7.9,1.1,1.7,1.4.8.2,2.1.4,3.9.4s.2.1.2.4Z"/>
    <path class="st0" d="M485.4,75.1c.2,0,.3.1.3.3,0,.2,0,.4-.2.5l-7.2,3.4c-.2,0-.4.1-.6.1-.6,0-1.2-.4-1.6-1.2-.5-.8-.8-1.9-1-3.3l-3.5,2.3c-1.1.8-2.1,1.4-3,1.7s-1.9.5-2.9.5c-1.8,0-3.1-.5-4.1-1.4-1-.9-1.5-2.1-1.5-3.5s.6-2.7,1.8-3.7c1.2-1,3.1-2,5.7-3l7.5-2.7v-4.6c0-2.8-.4-4.8-1.1-6.1-.7-1.3-1.8-1.9-3.2-1.9s-2.7.5-3.5,1.6c-.8,1.1-1.3,2.3-1.5,3.6-.3,2.1-1.2,3.1-2.9,3.1s-1.5-.2-1.9-.6-.6-.9-.6-1.5c0-1.2.7-2.3,2.2-3.5,1.5-1.2,3.2-2.1,5.3-2.9,2.1-.7,3.9-1.1,5.5-1.1s3.4.6,4.4,1.9c1,1.2,1.6,3,1.6,5.4v12.9c0,1.6.2,2.8.7,3.5.4.7,1.1,1.1,2.1,1.1s1.9-.3,3.2-.8h.1ZM474.9,73.9v-7.8l-5.9,2.4c-1.3.5-2.2,1-2.9,1.7-.7.7-1,1.5-1,2.6s.4,2,1.1,2.8c.7.7,1.6,1.1,2.8,1.1s2-.3,3.2-1l2.7-1.7Z"/>
    <path class="st0" d="M488.2,78.5c0-.3,0-.4.2-.4,1.7,0,2.9-.3,3.4-.9.6-.6.8-1.9.8-3.9v-36.1c0-1.7-.2-2.9-.5-3.6-.3-.7-.9-1.1-1.6-1.1s-1.8.3-3.2,1h0c-.2,0-.3-.1-.5-.4s0-.4.1-.5l9.2-4.3h.3c.1,0,.3,0,.5.1.2.1.3.3.3.4v44.5c0,2,.3,3.3.8,3.9.5.6,1.7.9,3.5.9s.2.1.2.4,0,.4-.2.4c-1.1,0-2,0-2.7,0h-3.9c0,0-3.9,0-3.9,0-.7,0-1.5,0-2.7,0s-.2-.1-.2-.4Z"/>
    <path class="st0" d="M506.4,78.5c0-.3,0-.4.2-.4,1.7,0,2.9-.3,3.4-.9.6-.6.8-1.9.8-3.9v-36.1c0-1.7-.2-2.9-.5-3.6-.3-.7-.9-1.1-1.6-1.1s-1.8.3-3.2,1h0c-.2,0-.3-.1-.5-.4s0-.4.1-.5l9.2-4.3h.3c.1,0,.3,0,.5.1.2.1.3.3.3.4v44.5c0,2,.3,3.3.8,3.9.5.6,1.7.9,3.5.9s.2.1.2.4,0,.4-.2.4c-1.1,0-2,0-2.7,0h-3.9c0,0-3.9,0-3.9,0-.7,0-1.5,0-2.7,0s-.2-.1-.2-.4Z"/>
  </g>
  <g>
    <path class="st0" d="M113.9,227.4l3.9-5.7c.5-.9,1.1-1.4,1.8-1.4s1.4.4,2.1.9l9,7.4c.7.5,1.4,1.2,1.4,2.5s-.5,1.9-5.8,5.5v105.1c0,3.7.7,20.3.7,23.7s-3.9,4.6-7.4,4.6-3.4-1.1-3.4-4.8v-7.8H31.8v8.3c0,1.8,0,4.2-7.1,4.2s-3.7-1.8-3.7-3.2c0-4.1.7-21.6.7-25.1v-99.9c0-11-.2-15.2-.7-20.9l13.8,6.5h79.1ZM31.8,234.5v53.1h84.4v-53.1H31.8ZM31.8,294.6v55.7h84.4v-55.7H31.8Z"/>
    <path class="st0" d="M334.8,337.4c-8.3.9-12.7,6.2-14.3,8-14.3-10.4-49.2-37.7-65.1-88.3v76.1h17.5l5.5-7.8c.5-.5.9-1.2,1.9-1.2s1.8.5,2.3,1.1l10.1,9.6c.9.7,1.6,1.8,1.6,2.8,0,2.7-2.5,2.7-3.5,2.7h-35.4v6.7c0,3.9.5,20.5.5,23.9s-4.1,4.6-7.3,4.6-3.7-1.2-3.7-3.4.5-21,.5-24.9v-6.9h-21.9c-3.5,0-6.7,0-13.8.7l-3-8.5c5.1.4,10.6.7,17.7.7h21v-67.9c-10.8,22.3-32,61.9-76.4,85.4l-1.6-2.5c47-37.1,64.6-76.1,71.3-91.3h-52.7c-3.5,0-6.7.2-13.8.7l-3-8.5c5.1.4,10.6.7,17.9.7h58.4v-17.5c0-2.5-.2-11.8-.9-19.8l13.1,1.9c1.8.2,4.6.5,4.6,2.7s-2.5,3.2-6.9,5v27.8h52.5l6.4-9c.5-.7,1.1-1.2,2.1-1.2s1.4.2,2.1,1.1l11.9,10.8c.7.5,1.6,1.8,1.6,3,0,2.5-2.5,2.5-3.7,2.5h-68.6c23.5,54.5,67.2,74.6,75.2,77.6v2.8Z"/>
    <path class="st0" d="M509.9,271.3c-6.7,2.1-11,6.2-11.9,10.4-27.1-2.3-49.5-6.9-70.2-15.9-20.3,8-43.7,15-82.4,16.6l-.4-2.8c36.8-5.8,54.5-11,73.2-18.6-10.8-6.4-19.1-13.1-29.9-25.1h-26c-3.5,0-6.7,0-13.1.7l-3.2-8.5c5,.4,10.6.7,17.7.7h58.5c0-.4,0-8.3-.7-16.6l13.1,1.8c1.9.2,4.4.5,4.4,2.7s-.4,2.5-6.7,4.8v7.4h52.5l5.8-8.5c.5-.9,1.1-1.4,2.1-1.4s1.8.7,2.1,1.1l12.2,10.6c1.2,1.1,1.6,1.9,1.6,2.7,0,2.5-2.7,2.7-4.2,2.7h-38c3.7,1.9,4.8,2.5,4.8,4.1,0,3.2-3.7,2.8-7.1,2.5-8,7.4-14.3,12.4-25.6,18.4,7.6,2.3,26.2,8,58.2,8s9.5-.2,13.1-.4v2.8ZM471.5,290.9c0-1.2-.2-6.4-.7-10.3l12.6,1.6c1.4.2,3.9.5,3.9,2.8s-1.1,2.7-5.7,4.8v57.1c0,3.7.5,20,.5,23.2s0,5-7.4,5-3.5-1.2-3.5-3.4c0-4.1.5-21.2.5-24.8v-29h-39.8v20.2c0,2.7.5,14.5.5,17,0,8.7-1.8,14.7-14.5,16.4-.4-6.5-1.1-7.8-15.7-12.2v-2.8l14,.7c6.4.4,6.4-2.5,6.4-5.8v-33.4h-38.7c-2.3,38.4-21.6,52-29.9,57.5l-1.8-2.1c18.4-20.9,21.9-36.6,21.9-67.7s-.5-18.6-1.1-24.9l12.9,1.9c1.4.2,3.9.5,3.9,2.7s-1.8,2.8-5.8,4.8v.9h87.5ZM411.2,333.5c1.4.9,3.5,2.5,3.5,4.1s-1.6,2.5-2.8,2.5-3-.4-4.8-.5c-6.4,8.8-12.4,16.3-24.4,25.8l-1.9-2.1c14.1-18.7,19.8-31.3,21.2-35.9l9.2,6.2ZM383.9,298v12.9h87.7v-12.9h-87.7ZM393.8,235.9c3.7,2.8,17,13.3,34.3,20.9,15.7-8.1,20.9-13.4,27.2-20.9h-61.5ZM439.1,328.2c13.4,7.4,24.1,17.7,24.1,27.2s-2.8,7.6-4.6,7.6-2.1-.7-5-6.9c-2.7-6-8-16.8-15.9-25.5l1.4-2.5Z"/>
    <path class="st0" d="M575.8,320.6c-8.3,5.3-23.7,12.6-43.5,21-.2,3.4-.9,5.3-2.5,5.3s-1.2-.4-2.7-3.5l-4.8-11.3c11.3-2.1,12.6-2.3,23.7-5.3v-56.1h-6.5c-2.1,0-7.8,0-13.1.7l-3.2-8.5c7.1.4,10.4.7,17.7.7h5.1v-29.4c0-3.7-.2-11-.9-17l12.6,1.6c1.8.2,4.4.7,4.4,2.8s-.5,2.5-6.7,4.8v37.1h2.5l4.1-5.7c.5-.9,1.1-1.6,1.9-1.6s2.1.9,2.5,1.2l8.7,7.8c.7.7,1.6,1.4,1.6,2.8,0,2.1-2.8,2.5-4.2,2.5h-17v53.4c8.3-2.5,12-3.7,19.1-6.2l1.2,2.7ZM588.9,372.8c11-6.2,38.9-22.8,53.6-55.7h-17.3c-8.8,16.3-31.3,38.4-51.6,45.8l-1.6-2.5c21.6-13.4,36.6-31.8,43-43.3h-19.5c-13.6,18.7-28.7,26.9-34.7,30.1l-1.8-2.3c22.3-18.2,32.2-35.2,36.8-47.8h-9.2c-6.9,0-11.5.4-13.3.7l-3.2-8.5c10.8.7,14.7.7,17.9.7h76.9l5-7.3c.5-.7,1.1-1.4,1.9-1.4s1.9.7,2.3,1.1l10.6,9.4c.7.7,1.6,1.4,1.6,2.7,0,2.7-3.2,2.7-4.2,2.7h-76.2c-1.2,3.4-2.8,7.4-6,12.9h65.4l3.5-4.8c.4-.4.9-.9,1.4-.9s1.1.4,1.6.7l8.7,8.1c.5.5,1.4,1.6,1.4,2.8s0,2.1-6.4,4.1c-5.1,50.8-10.1,53.8-27.9,54.7,0-6-1.6-6.5-16.6-10.4l.4-3c2.8.2,16.3.9,19.5.9,6.7,0,8.3-1.6,10.3-8.5.4-1.4,4.4-16.1,5.3-36.6h-13.6c-8,22.3-28.8,46.7-63,58.4l-.9-2.7ZM650.6,223l3.7-5.5c.4-.7.9-1.2,1.8-1.2s1.8.7,1.9.9l8.5,7.3c.5.5,1.2,1.2,1.2,2.5,0,1.9-3.2,3.9-5.7,5.5v21c0,3.7.7,20.2.7,23.5s-4.8,4.8-6.9,4.8c-3.4,0-3.4-1.1-3.4-5.1h-54.3c0,3,0,5.3-6.4,5.3s-3.7-1.2-3.7-3.5c0-3.9.5-20.9.5-24.4v-17.2c0-4.2,0-10.3-.7-19.8l12.2,6h50.4ZM598.3,230.1v15.7h54.3v-15.7h-54.3ZM598.3,252.9v16.6h54.3v-16.6h-54.3Z"/>
  </g>
</svg>